<?xml version="1.0" encoding="UTF-8"?>
<svg id="Warstwa_2" data-name="Warstwa 2" xmlns="http://www.w3.org/2000/svg" viewBox="0 0 99.76 94.76">
  <defs>
    <style>
      .cls-1 {
        stroke-width: 0px;
      }
    </style>
  </defs>
  <g id="ICON">
    <g>
      <path class="cls-1" d="m99.74,48.76c-.3-10.26-4.13-20.17-10.8-27.91-6.54-7.59-15.53-12.83-25.31-14.74-.28-.05-.57-.08-.85-.08-1.63,0-3.11.92-3.86,2.4-.75,1.47-.61,3.2.36,4.53,4.52,6.19,7.16,13.53,7.63,21.22,1.37,22.16-15.55,41.31-37.68,42.68h-.08c-1.82.11-3.35,1.3-3.91,3.03-.55,1.71-.02,3.55,1.37,4.69,7.98,6.57,18.06,10.19,28.38,10.19h0c1.13,0,2.27-.04,3.4-.13,11.47-.86,22.06-6.08,29.83-14.69,7.77-8.61,11.86-19.69,11.53-31.18Z"/>
      <path class="cls-1" d="m40.48,31.53c-1.72-.1-3.21,1.2-3.33,2.92l-.15,2.28-2.28-.15c-1.71-.1-3.21,1.2-3.33,2.92-.11,1.72,1.19,3.21,2.92,3.33l2.28.15-.15,2.28c-.11,1.72,1.19,3.21,2.92,3.33.07,0,.14,0,.21,0,1.64,0,3.01-1.27,3.12-2.93l.15-2.28,2.28.15c.07,0,.14,0,.21,0,1.64,0,3.01-1.27,3.12-2.93.11-1.72-1.19-3.21-2.92-3.33l-2.28-.15.15-2.28c.11-1.72-1.19-3.21-2.92-3.33Z"/>
      <path class="cls-1" d="m27.53,14.27c.62.76,1.52,1.15,2.42,1.15.7,0,1.4-.23,1.98-.71l2.62-2.14,2.14,2.62c.62.76,1.52,1.15,2.42,1.15.7,0,1.4-.23,1.98-.71,1.34-1.09,1.54-3.07.44-4.4l-2.14-2.62,2.62-2.14c1.34-1.09,1.54-3.07.44-4.4-1.09-1.34-3.06-1.54-4.4-.44l-2.62,2.14-2.14-2.62c-1.09-1.34-3.06-1.54-4.4-.44-1.34,1.09-1.54,3.07-.44,4.4l2.14,2.62-2.62,2.14c-1.34,1.09-1.54,3.07-.44,4.4Z"/>
      <path class="cls-1" d="m17.78,45.29l-4.46.66-.66-4.46c-.25-1.71-1.84-2.88-3.55-2.64-1.71.25-2.89,1.85-2.64,3.56l.66,4.46-4.46.66c-1.71.25-2.89,1.85-2.64,3.55.23,1.55,1.57,2.67,3.09,2.67.15,0,.31-.01.46-.03l4.46-.66.66,4.46c.23,1.55,1.57,2.67,3.09,2.67.15,0,.31-.01.46-.03,1.71-.25,2.89-1.85,2.64-3.56l-.66-4.46,4.46-.66c1.71-.25,2.89-1.85,2.64-3.55-.25-1.71-1.84-2.88-3.55-2.64Z"/>
    </g>
  </g>
</svg>