<?xml version="1.0" encoding="UTF-8"?>
<svg id="Warstwa_2" data-name="Warstwa 2" xmlns="http://www.w3.org/2000/svg" viewBox="0 0 105.14 105.14">
  <defs>
    <style>
      .cls-1 {
        stroke-width: 0px;
      }
    </style>
  </defs>
  <g id="ICON">
    <g>
      <g>
        <path class="cls-1" d="m52.57,16.78c-1.81,0-3.27-1.46-3.27-3.27V3.27c0-1.8,1.46-3.27,3.27-3.27s3.27,1.46,3.27,3.27v10.24c0,1.8-1.46,3.27-3.27,3.27Z"/>
        <path class="cls-1" d="m52.57,105.14c-1.81,0-3.27-1.46-3.27-3.27v-10.46c0-1.8,1.46-3.27,3.27-3.27s3.27,1.46,3.27,3.27v10.46c0,1.8-1.46,3.27-3.27,3.27Z"/>
        <path class="cls-1" d="m101.88,55.84h-10.39c-1.81,0-3.27-1.46-3.27-3.27s1.46-3.27,3.27-3.27h10.39c1.81,0,3.27,1.46,3.27,3.27s-1.46,3.27-3.27,3.27Z"/>
        <path class="cls-1" d="m13.53,55.84H3.27c-1.81,0-3.27-1.46-3.27-3.27s1.46-3.27,3.27-3.27h10.26c1.81,0,3.27,1.46,3.27,3.27s-1.46,3.27-3.27,3.27Z"/>
        <path class="cls-1" d="m80.11,28.3c-.84,0-1.67-.32-2.31-.96-1.28-1.28-1.28-3.35,0-4.62l7.32-7.32c1.28-1.28,3.35-1.28,4.62,0,1.28,1.28,1.28,3.35,0,4.62l-7.32,7.32c-.64.64-1.47.96-2.31.96Z"/>
        <path class="cls-1" d="m17.71,90.7c-.84,0-1.67-.32-2.31-.96-1.28-1.28-1.28-3.35,0-4.62l7.32-7.32c1.28-1.28,3.35-1.28,4.62,0,1.28,1.28,1.28,3.35,0,4.62l-7.32,7.32c-.64.64-1.47.96-2.31.96Z"/>
        <path class="cls-1" d="m87.44,90.7c-.84,0-1.67-.32-2.31-.96l-7.38-7.38c-1.28-1.28-1.28-3.35,0-4.62,1.28-1.28,3.35-1.28,4.62,0l7.38,7.38c1.28,1.28,1.28,3.35,0,4.62-.64.64-1.47.96-2.31.96Z"/>
        <path class="cls-1" d="m24.94,28.21c-.84,0-1.67-.32-2.31-.96l-7.23-7.23c-1.28-1.28-1.28-3.35,0-4.62,1.28-1.28,3.35-1.28,4.62,0l7.23,7.23c1.28,1.28,1.28,3.35,0,4.62-.64.64-1.47.96-2.31.96Z"/>
      </g>
      <circle class="cls-1" cx="52.57" cy="52.57" r="25.82"/>
    </g>
  </g>
</svg>